<?xml version="1.0" encoding="utf-8"?>
<!-- Generator: Adobe Illustrator 25.2.0, SVG Export Plug-In . SVG Version: 6.00 Build 0)  -->
<svg version="1.1" id="Layer_1" xmlns="http://www.w3.org/2000/svg" xmlns:xlink="http://www.w3.org/1999/xlink" x="0px" y="0px"
	 viewBox="0 0 100 100" style="enable-background:new 0 0 100 100;" xml:space="preserve">
<style type="text/css">
	.st0{fill:#D14D2A;}
</style>
<g>
	<path class="st0" d="M49.1,59.9c-5.4,0-9.8,2.4-9.8,9.8C39.4,92.9,43,99,49.1,99c5.5,0,9.8-6.1,9.8-29.3
		C58.9,62.3,54.5,59.9,49.1,59.9L49.1,59.9z"/>
	<g>
		<path class="st0" d="M49.1,18.4c-14.9,0-26.9,12-26.9,26.9c0,9.5,4.9,17.8,12.3,22.6c0.1-1.8,0.6-3.5,1.3-5.1
			c-5.2-4-8.7-10.4-8.7-17.5c0-12.1,9.9-22,22-22s22,9.9,22,22c0,7.1-3.4,13.4-8.7,17.5c0.7,1.5,1.1,3.2,1.3,5.1
			c7.4-4.8,12.3-13.1,12.3-22.6C76,30.4,63.9,18.4,49.1,18.4z"/>
	</g>
	<path class="st0" d="M49.1,1.3C24.9,1.3,5.2,21,5.2,45.2c0,19.5,12.7,36,30.3,41.7c-0.2-1.7-0.5-3.4-0.6-5.4
		c-14.5-5.7-24.8-19.9-24.8-36.4c0-21.5,17.6-39.1,39.1-39.1s39.1,17.6,39.1,39.1c0,16.5-10.4,30.6-24.9,36.4
		c-0.1,1.8-0.4,3.7-0.7,5.5C80.3,81.4,93,64.9,93,45.2C93.1,21,73.4,1.3,49.1,1.3z"/>
	<path class="st0" d="M49.1,35.5c-5.4,0-9.8,4.4-9.8,9.8s4.4,9.8,9.8,9.8s9.8-4.4,9.8-9.8S54.5,35.5,49.1,35.5L49.1,35.5z"/>
</g>
</svg>
