<svg version="1.1" id="Layer_1" xmlns="http://www.w3.org/2000/svg" x="0" y="0" viewBox="0 0 25.2 56.7" xml:space="preserve"><style>.st0{fill:#d14d2a}</style><path class="st0" d="M23.1 36.2c0 1.5-1.2 2.7-2.7 2.7H4.6c-1.5 0-2.7-1.2-2.7-2.7V20.4c0-1.5 1.2-2.7 2.7-2.7h15.8c1.5 0 2.7 1.2 2.7 2.7v15.8zm1.4 0V20.3c0-2.2-1.8-4-4-4H4.6c-2.2 0-4 1.8-4 4v15.9c0 2.2 1.8 4 4 4h15.9c2.2 0 4-1.7 4-4"/><path class="st0" d="M12.5 23.5c-2.7 0-4.8 2.2-4.8 4.8s2.2 4.8 4.8 4.8 4.8-2.2 4.8-4.8-2.1-4.8-4.8-4.8m0 10.9c-1.6 0-3.2-.6-4.3-1.8s-1.8-2.7-1.8-4.3.6-3.2 1.8-4.3 2.7-1.8 4.3-1.8 3.2.6 4.3 1.8c1.2 1.2 1.8 2.7 1.8 4.3s-.6 3.2-1.8 4.3c-1.1 1.2-2.6 1.8-4.3 1.8M21.3 20.6c0 .6-.5 1.2-1.2 1.2s-1.2-.5-1.2-1.2.5-1.2 1.2-1.2 1.2.6 1.2 1.2"/></svg>