<?xml version="1.0" encoding="utf-8"?>
<!-- Generator: Adobe Illustrator 25.1.0, SVG Export Plug-In . SVG Version: 6.00 Build 0)  -->
<svg version="1.1" id="Layer_1" xmlns="http://www.w3.org/2000/svg" xmlns:xlink="http://www.w3.org/1999/xlink" x="0px" y="0px"
	 viewBox="0 0 500 222" style="enable-background:new 0 0 500 222;" xml:space="preserve">
<style type="text/css">
	.st0{fill:#D14D2A;}
	.st1{fill:#2B0E03;}
</style>
<path class="st0" d="M8,75.4C8,44.9,20.7,21.9,39.2,6.6H62C41.6,24.5,30,50.1,30,75.3c0,26.3,11.4,51.7,32,70.4H39.2
	C20.7,129.6,8,106,8,75.4z"/>
<path class="st0" d="M440,214.6c20.4-18.6,32-44.2,32-70.4c0-25.1-11.4-50.8-32-68.6h22.8c18.5,15.3,31.2,38.3,31.2,68.8
	c0,30.6-12.7,54.2-31.2,70.3H440z"/>
<path class="st1" d="M21,107.6c-1.3-0.5-1.6-1.2-1.6-2.4c0-2.3,0.2-7.1,0.6-11.5c5.4,4.5,12.3,6.9,19.7,6.9c5.8,0,9.8-2.6,9.7-6.9
	c-0.1-4.6-6-7.3-13.6-11.3c-7.6-4-16.6-7.9-16.6-20c0-11.7,9-18.8,21.5-18.8c8,0,14.3,1.4,16.5,1.4v13.1c-4.6-2.8-11.4-4.5-18.2-4.5
	c-5,0-8.2,2.6-8.2,6.7c0,5.2,4.2,7.3,11.5,11c7.6,3.8,18,7.3,18,19.7c0,12.2-8.5,18.8-23.4,18.8C31.2,109.9,25.5,109.2,21,107.6z"/>
<path class="st1" d="M75.7,100.4c0.3-4.5,0.2-11.5,0.2-23.9c0-11.7,0-18.2-0.3-22.6c-0.2-3.6-0.6-6.6-0.8-9.4h29.3h7.6v10.7
	c-2.4-0.2-5.3-0.5-7.6-0.5h-15v16.9h12.7c3,0,5.8-0.1,8-0.2v10.2c-2.4-0.3-5.2-0.5-8-0.5H89.1v18.6h15.8c2.7,0,5.2-0.2,7.6-0.5v10.1
	h-7.6H74.5C75,106.4,75.4,104.3,75.7,100.4z"/>
<path class="st1" d="M124.3,77.5c0-19.7,14-33.6,35.3-33.6c8.5,0,15.7,1.5,20.3,3c-0.3,4.4-0.7,9.7-1,13.5
	c-4.6-3.1-11.3-5.9-19.7-5.9c-12,0-21,7.9-21,22.3c0,14.9,9.9,23.4,23.2,23.4c6.9,0,12.8-1.5,17.8-4.4l0.3,11
	c-5.3,1.9-11.8,3.2-20.1,3.2C139.2,109.9,124.3,98.3,124.3,77.5z"/>
<path class="st1" d="M191.2,101.5c0.3-4.8,0.5-10.6,0.5-17V69.3c0-5.9-0.2-11-0.3-15.3c-0.2-3.6-0.6-6.7-0.8-9.4l7.2-0.1
	c4.4-0.1,11.4-0.2,16.8-0.2c13.6,0,21.5,6.6,21.5,17.5c0,9.2-4.5,14.9-11.7,18.5c6.6,9.1,11.7,15.3,16.7,20.9
	c3.5,3.8,6.2,6.5,8.7,8.1h-16.6c-2.5,0-3-0.2-4.2-1.5c-1.7-2.4-4.4-5.9-8.8-12.5c-3.3-5-5.3-7.2-7.4-10.6c-0.2-0.4-0.7-0.5-1.2-0.5
	l-7.2-0.1c0,5.2,0,10.1,0.1,13.5c0.2,4.5,0.7,8.7,1.2,11.9h-15.5C190.7,107,191.1,104.4,191.2,101.5z M222.6,64.5
	c0-6.9-3.8-11.4-12.7-11.4c-2,0-3.8,0.2-5.4,0.4v21c0,0.4,0.2,0.8,0.7,0.9c1.8,0.4,4.2,0.6,6.5,0.6C218.7,76,222.6,72.1,222.6,64.5z
	"/>
<path class="st1" d="M255.5,100.4c0.3-4.5,0.2-11.5,0.2-23.9c0-11.7,0-18.2-0.3-22.6c-0.2-3.6-0.6-6.6-0.8-9.4h29.3h7.6v10.7
	c-2.4-0.2-5.3-0.5-7.6-0.5h-15v16.9h12.7c3,0,5.8-0.1,8-0.2v10.2c-2.4-0.3-5.2-0.5-8-0.5h-12.7v18.6h15.9c2.7,0,5.2-0.2,7.6-0.5
	v10.1h-7.6h-30.5C254.9,106.4,255.3,104.3,255.5,100.4z"/>
<path class="st1" d="M320.3,100.4c0.2-3.7,0.2-7.7,0.2-23.8v-22h-14.3c-3,0-5.7,0.2-8.5,0.6V44.5h8.2h41h8v10.8
	c-2.8-0.5-5.5-0.6-8.4-0.6h-14.1v25.3c0,7,0.2,16.2,0.3,20.5c0.2,3.4,0.5,6.3,0.9,8.8h-14.4C319.8,106.6,320,104.3,320.3,100.4z"/>
<path class="st1" d="M121.3,155.9H90c0,7.2,0.2,14.5,0.3,18.8c0.2,3.4,0.6,6.1,1.2,8.8H75.6c0.6-2.7,1-5,1.2-8.7
	c0.2-4.5,0.2-7.7,0.2-23.8c0-11.9-0.2-18.3-0.3-22.7c-0.2-3.6-0.6-6.6-0.8-9.4h15c-0.5,3.4-0.7,8-0.8,13c-0.2,4.5-0.2,9.5-0.2,14.4
	h31.3c0-8.8-0.1-14.2-0.3-18c-0.2-3.6-0.6-6.6-0.8-9.4h15c-0.5,3.4-0.7,8-0.8,13c-0.2,5.9-0.2,12.7-0.2,19.2
	c0,8.6,0.1,18.5,0.3,23.7c0.2,3.4,0.6,6.1,1.2,8.8h-15.5c0.6-2.7,0.9-5,1.2-8.7C121.4,170.8,121.3,167.9,121.3,155.9z"/>
<path class="st1" d="M155.6,174.7c0.3-4.5,0.2-7.7,0.2-23.8c0-11.9,0-18.3-0.3-22.7c-0.2-3.6-0.6-6.6-0.8-9.4h15
	c-0.5,3.4-0.7,8-0.8,13c-0.2,5.9-0.2,12.7-0.2,19.2c0,8.6,0.1,18.5,0.3,23.7c0.2,3.4,0.6,6.1,1.2,8.8h-15.9
	C155,180.8,155.3,178.6,155.6,174.7z"/>
<path class="st1" d="M187,182c-1.3-0.5-1.6-1.2-1.6-2.4c0-2.3,0.2-7.1,0.6-11.5c5.4,4.5,12.3,6.9,19.7,6.9c5.8,0,9.8-2.6,9.7-6.9
	c-0.1-4.6-6-7.3-13.6-11.3c-7.6-4-16.6-7.9-16.6-20c0-11.7,9-18.8,21.5-18.8c8,0,14.3,1.4,16.5,1.4v13.1c-4.6-2.8-11.4-4.5-18.2-4.5
	c-5,0-8.2,2.6-8.2,6.7c0,5.2,4.2,7.3,11.5,11c7.6,3.8,18,7.3,18,19.7c0,12.2-8.5,18.8-23.4,18.8C197.1,184.2,191.5,183.6,187,182z"
	/>
<path class="st1" d="M253.2,174.7c0.2-3.7,0.2-7.7,0.2-23.8v-22.1h-14.3c-3,0-5.7,0.2-8.5,0.6v-10.8h8.2h41h8v10.8
	c-2.8-0.5-5.5-0.6-8.4-0.6h-14v25.4c0,7,0.2,16.2,0.3,20.5c0.2,3.4,0.5,6.3,0.9,8.8h-14.4C252.6,181,252.8,178.6,253.2,174.7z"/>
<path class="st1" d="M292.7,151.9c0-19.5,13.2-33.5,34.7-33.5c20.9,0,34.3,13.5,34.3,32.4c0,19.5-12.8,33.4-34.7,33.4
	C305.9,184.2,292.7,170.7,292.7,151.9z M347.9,151.8c0-13.1-8.1-22.8-21.2-22.8c-13.3,0-20.3,9.3-20.3,22.3
	c0,13.6,8.1,23.3,21.5,23.3C341.5,174.5,347.9,164.9,347.9,151.8z"/>
<path class="st1" d="M374.6,175.8c0.3-4.8,0.5-10.6,0.5-17v-15.2c0-5.9-0.2-11-0.3-15.3c-0.2-3.6-0.6-6.7-0.8-9.4l7.2-0.1
	c4.4-0.1,11.4-0.2,16.8-0.2c13.6,0,21.5,6.6,21.5,17.5c0,9.2-4.5,14.9-11.7,18.5c6.6,9.1,11.7,15.3,16.7,20.9
	c3.5,3.8,6.2,6.5,8.7,8.1h-16.6c-2.5,0-3-0.2-4.2-1.5c-1.7-2.4-4.4-5.9-8.8-12.5c-3.3-5-5.3-7.2-7.4-10.6c-0.2-0.4-0.7-0.5-1.2-0.5
	l-7.2-0.1c0,5.2,0,10.1,0.1,13.5c0.2,4.5,0.7,8.7,1.2,11.9h-15.6C373.9,181.3,374.3,178.7,374.6,175.8z M405.8,138.9
	c0-6.9-3.8-11.4-12.7-11.4c-2,0-3.8,0.2-5.4,0.4v21c0,0.4,0.2,0.8,0.7,0.9c1.8,0.4,4.2,0.6,6.5,0.6
	C401.9,150.4,405.8,146.4,405.8,138.9z"/>
<path class="st1" d="M449.5,174.7c0.2-3,0.2-5.4,0.2-11v-7.7c-1.4-2.9-3.3-5.8-5.2-8.8l-12.7-20.9c-1.6-2.5-3.5-5.1-5.8-7.7h16.8
	c0.3,1.2,0.8,2.5,1.5,3.8l1.7,3.3l11.2,20h0.3l11.3-20.2c0.7-1.2,1.3-2.4,1.8-3.4c0.6-1.1,1-2.4,1.4-3.6h15.1
	c-1.7,2-4.3,5.2-5.7,7.3l-19.2,30.4c0,7.2,0.2,14,0.3,18.3c0.2,3.4,0.6,6.1,1.2,8.8h-15.9C448.8,180.8,449,178.6,449.5,174.7z"/>
</svg>
