<svg class="pause" width="55" height="83" viewBox="0 0 55 83" fill="none" xmlns="http://www.w3.org/2000/svg">
<path fill-rule="evenodd" clip-rule="evenodd" d="M9 3.55155e-07C13.9706 5.51302e-07 18 4.02944 18 9L18 74C18 78.9706 13.9706 83 9 83C4.02943 83 -3.82366e-06 78.9706 -3.58299e-06 74L-4.35769e-07 9C-1.951e-07 4.02944 4.02944 1.59008e-07 9 3.55155e-07Z" fill="#D14D2A"/>
<path fill-rule="evenodd" clip-rule="evenodd" d="M46 3.55155e-07C50.9706 5.51302e-07 55 4.02944 55 9L55 74C55 78.9706 50.9706 83 46 83C41.0294 83 37 78.9706 37 74L37 9C37 4.02944 41.0294 1.59008e-07 46 3.55155e-07Z" fill="#D14D2A"/>
</svg>
