<?xml version="1.0" encoding="utf-8"?>
<!-- Generator: Adobe Illustrator 25.2.0, SVG Export Plug-In . SVG Version: 6.00 Build 0)  -->
<svg version="1.1" id="Layer_1" xmlns="http://www.w3.org/2000/svg" xmlns:xlink="http://www.w3.org/1999/xlink" x="0px" y="0px"
	 viewBox="0 0 100 100" style="enable-background:new 0 0 100 100;" xml:space="preserve">
<style type="text/css">
	.st0{fill:#D14D2A;}
</style>
<g>
	<path class="st0" d="M93.6,87.8L71.4,64c4.8-6.2,7.6-13.8,7.9-21.8C80,21.2,63.6,3.5,42.6,2.8C21.7,2.1,4,18.6,3.3,39.5
		C3,49.6,6.6,59.3,13.5,66.7c6.9,7.4,16.3,11.7,26.5,12c8,0.2,15.8-2,22.3-6.4l22.2,23.8l0.1,0.1c1.2,1.2,2.7,1.8,4.4,1.8
		c1.4,0,2.8-0.5,3.9-1.3l0.3-0.2c1.3-1.1,2-2.7,2.1-4.4C95.3,90.5,94.7,88.9,93.6,87.8z M67,41.7c-0.2,6.8-3.1,13.2-8.1,17.8
		c-5,4.7-11.6,7.1-18.4,6.9h0c-6.8-0.2-13.2-3.1-17.8-8.1c-4.7-5-7.1-11.6-6.9-18.4c0.5-13.8,12-24.8,25.7-24.8c0.3,0,0.5,0,0.8,0
		C56.4,15.7,67.5,27.6,67,41.7z"/>
</g>
</svg>
