<?xml version="1.0" encoding="utf-8"?>
<!-- Generator: Adobe Illustrator 25.2.0, SVG Export Plug-In . SVG Version: 6.00 Build 0)  -->
<svg version="1.1" id="Layer_1" xmlns="http://www.w3.org/2000/svg" xmlns:xlink="http://www.w3.org/1999/xlink" x="0px" y="0px"
	 viewBox="0 0 100 100" style="enable-background:new 0 0 100 100;" xml:space="preserve">
<style type="text/css">
	.st0{fill:#D14D2A;}
</style>
<path class="st0" d="M78.1,60.1c-7.4,0-13.9,4.3-17,10.6l-24-13c1.3-2.6,2-5.5,2-8.5c0-2.3-0.4-4.5-1.2-6.6L62,32.2
	c3.4,5.3,9.3,8.9,16.1,8.9c10.5,0,19-8.5,19-19s-8.5-19-19-19s-19,8.5-19,19c0,2.3,0.4,4.5,1.2,6.5L36.1,38.9
	c-3.4-5.3-9.3-8.8-16-8.8c-10.5,0-19,8.5-19,19s8.5,19,19,19c6,0,11.3-2.8,14.8-7.1l24.8,13.4c-0.4,1.5-0.6,3-0.6,4.7
	c0,10.5,8.5,19,19,19s19-8.5,19-19S88.6,60.1,78.1,60.1z"/>
</svg>
